<?xml version="1.0" standalone="no"?><!DOCTYPE svg PUBLIC "-//W3C//DTD SVG 1.1//EN" "http://www.w3.org/Graphics/SVG/1.1/DTD/svg11.dtd"><svg t="1730126254343" class="icon" viewBox="0 0 1024 1024" version="1.1" xmlns="http://www.w3.org/2000/svg" p-id="6371" xmlns:xlink="http://www.w3.org/1999/xlink" width="200" height="200"><path d="M234.666667 554.666667h384c12.8 0 21.333333 8.533333 21.333333 21.333333s-8.533333 21.333333-21.333333 21.333333h-384c-12.8 0-21.333333-8.533333-21.333334-21.333333s8.533333-21.333333 21.333334-21.333333zM213.333333 448c0 12.8 8.533333 21.333333 21.333334 21.333333h256c12.8 0 21.333333-8.533333 21.333333-21.333333s-8.533333-21.333333-21.333333-21.333333h-256c-12.8 0-21.333333 8.533333-21.333334 21.333333zM938.666667 469.333333v85.333334h-42.666667v85.333333h-42.666667v42.666667c0 46.933333-38.4 85.333333-85.333333 85.333333h-170.666667v42.666667h106.666667c12.8 0 21.333333 8.533333 21.333333 21.333333s-8.533333 21.333333-21.333333 21.333333h-469.333333c-12.8 0-21.333333-8.533333-21.333334-21.333333s8.533333-21.333333 21.333334-21.333333H341.333333v-42.666667H170.666667c-46.933333 0-85.333333-38.4-85.333334-85.333333V341.333333c0-46.933333 38.4-85.333333 85.333334-85.333333h42.666666c0-46.933333 38.4-85.333333 85.333334-85.333333h85.333333c46.933333 0 85.333333 38.4 85.333333 85.333333h298.666667c46.933333 0 85.333333 38.4 85.333333 85.333333v42.666667h42.666667v85.333333h42.666667z m-170.666667-170.666666h-341.333333V256c0-25.6-17.066667-42.666667-42.666667-42.666667h-85.333333c-25.6 0-42.666667 17.066667-42.666667 42.666667v42.666667H170.666667c-25.6 0-42.666667 17.066667-42.666667 42.666666v341.333334c0 25.6 17.066667 42.666667 42.666667 42.666666h597.333333V298.666667z" fill="" p-id="6372"></path></svg>