<?xml version="1.0" standalone="no"?><!DOCTYPE svg PUBLIC "-//W3C//DTD SVG 1.1//EN" "http://www.w3.org/Graphics/SVG/1.1/DTD/svg11.dtd"><svg t="1730126144458" class="icon" viewBox="0 0 1024 1024" version="1.1" xmlns="http://www.w3.org/2000/svg" p-id="5139" xmlns:xlink="http://www.w3.org/1999/xlink" width="200" height="200"><path d="M285.866667 678.4H213.333333c-17.066667 0-34.133333-12.8-34.133333-34.133333s12.8-34.133333 34.133333-34.133334h72.533334c21.333333 0 34.133333-17.066667 34.133333-34.133333s-17.066667-34.133333-34.133333-34.133333c-59.733333 0-102.4-42.666667-102.4-98.133334s42.666667-98.133333 98.133333-98.133333h72.533333c17.066667 0 29.866667 12.8 29.866667 29.866667s-12.8 34.133333-29.866667 34.133333H281.6c-21.333333 0-34.133333 17.066667-34.133333 34.133333s17.066667 34.133333 34.133333 34.133334c59.733333 0 102.4 42.666667 102.4 98.133333s-42.666667 102.4-98.133333 102.4zM742.4 678.4h-72.533333c-17.066667 0-34.133333-12.8-34.133334-34.133333s12.8-34.133333 34.133334-34.133334h72.533333c21.333333 0 34.133333-17.066667 34.133333-34.133333s-17.066667-34.133333-34.133333-34.133333c-59.733333 0-102.4-42.666667-102.4-98.133334s46.933333-98.133333 98.133333-98.133333H810.666667c17.066667 0 34.133333 12.8 34.133333 34.133333s-17.066667 29.866667-34.133333 29.866667h-72.533334c-21.333333 0-34.133333 17.066667-34.133333 34.133333s17.066667 34.133333 34.133333 34.133334c59.733333 0 102.4 42.666667 102.4 98.133333s-42.666667 102.4-98.133333 102.4zM512 678.4c-55.466667 0-102.4-46.933333-102.4-102.4v-132.266667C409.6 388.266667 456.533333 341.333333 512 341.333333s102.4 46.933333 102.4 102.4v132.266667c0 59.733333-46.933333 102.4-102.4 102.4z m0-268.8c-21.333333 0-38.4 17.066667-38.4 38.4v132.266667c0 21.333333 17.066667 38.4 38.4 38.4s38.4-17.066667 38.4-38.4v-132.266667c0-21.333333-17.066667-38.4-38.4-38.4z" p-id="5140"></path><path d="M640 896H384c-213.333333 0-384-170.666667-384-384s170.666667-384 384-384h256c213.333333 0 384 170.666667 384 384s-170.666667 384-384 384zM384 213.333333c-166.4 0-298.666667 132.266667-298.666667 298.666667s132.266667 298.666667 298.666667 298.666667h256c166.4 0 298.666667-132.266667 298.666667-298.666667s-132.266667-298.666667-298.666667-298.666667H384z" p-id="5141"></path></svg>